<?xml version="1.0" encoding="UTF-8"?><svg id="a" xmlns="http://www.w3.org/2000/svg" viewBox="0 0 1024 1024"><path d="M261.042551145674224,158.992401931063796c21.851719857953867,8.034281577954971,43.105310522938453,20.932522998071363,61.941721105147735,34.543110760841955,27.865357840282741,20.134616240757168,51.480856076914279,45.111939633269685,76.054061965174697,68.938112748539425,73.446625379332545-21.216005683876574,153.387848688022132-22.201133105068948,226.807249135863458-.155157339233483,29.750206494085432-30.684577245985565,62.563828649232164-63.36071777651523,99.294339198899252-85.623246664534236,180.045716951670329-109.126524919405711,150.73493642772155,150.671471220475723,122.674581448267418,247.216552209398287,9.231605920009315,21.593046337562555,18.152832611107442,43.317764963539958,24.930066989036277,65.863440308659847,10.049568043847103,33.431675199712117,11.461469599351403,80.514942715251891,35.322514143663284,104.677485856338535,9.336134694007342,9.454102350635367,23.274920665990066,11.972637726994435,22.382798643524438,28.563668467821117-.312185567763663,5.805798109715397-8.155140450322506,27.233346516823076-10.697756145698804,33.248564933019225-27.815103248110972,65.803857661583606-96.231771688773733,113.173300273731002-162.246057500724419,135.770578734242008,8.431487165937142,14.259057505791134,30.51798366836374,51.300651818601182,29.788386841275496,67.03343021839828-.477506108749367,10.296779693351709-13.877832244779711,17.781925401428452-23.359459828167019,13.511445504202129-7.957558038353454-3.584046234143898-21.737442264045967-44.085744805433933-27.124171620984271-54.763188508415624-6.345629132625618-12.578151478199288-33.791473493078229-39.330743510065076-12.549990397026704-51.001065044376446,18.394649757079605-10.106237695617892,51.028274504540605-16.002816625881678,72.904325304727536-27.607589238337823,43.603701128831744-23.130821978942549,84.841746262136439-66.45386358691394,98.337590302704484-114.105258668023453-43.990442693357181-26.85196230895599-41.283374648857716-80.621370223179838-54.75790906291877-125.32834293524138-7.347664362547221-24.378714696880706-17.383605549079221-48.020069170892384-28.206107069156133-70.824668687911981,1.653729932673741-15.955638346595151,6.87413325639136-31.106112000432404,9.976095678164711-46.731216368947571,9.39167807319609-47.307455776774077,17.540311626999028-96.16457420824554,9.665541902941186-145.879645455090213-9.922086129812669-62.640208684950267-30.373352454764245-62.349184233831693-82.364261090195214-33.968002786299621-44.889322019411338,24.50451486091697-76.697179530634457,62.130308602017976-113.04595750137014,96.946493718780403-6.58751519483485,1.783788876768085-34.970067924696195-8.46181343013086-44.258463787838991-10.309808553076437-48.511035432271456-9.651629647221853-94.257911830356534-11.298461952073922-143.204929143315894-3.146035598232629-14.804385280349379,2.465761293282412-46.216792654865458,13.752647708752193-57.327824955236792,13.769619022825282-11.374763613834148.017374144958012-33.017362331323966-30.665909130324508-41.94747050152364-39.143358824516326-26.415687550897019-25.076702105079676-94.734461403360001-80.007374113840342-132.018053088695524-75.917200543823128-16.000556500420316,1.755331242116881-21.602882289871559,28.175784892343472-24.225925710245065,41.771666089201972-12.862826158971075,66.671201458213545,3.222803746719364,135.753635445782493,18.432278709537059,200.451587945301071-10.486294744856423,23.481461177948404-20.616080588004479,47.17723705248136-28.000076692809671,71.980614072039316-13.663766192346884,45.897578975615033-11.147713071019098,97.374407568815514-54.809357507518143,126.429638076293486,10.374777454999276,35.763801215460262,34.420839044811146,67.945093666250614,63.462221916979615,90.954572689763154,20.267168911274894,16.057671908489283,46.539808840514524,28.096716306379676,70.366772868375847,38.121261175598192,12.709836198249832,5.347316724899429,45.855856591466363,9.953521554736653,45.23584825364378,26.77198487676651-.258609681954113,7.015095096779987-20.276222819253235,35.410869699720934-24.883177451800293,45.094851247453335-4.791590919354348,10.072093551672879-12.711278379381838,39.98997847157807-20.7767439420968,45.223660966748866-8.084448338016955,5.246000422517682-19.210637005260651,2.512060678742273-23.746814491905752-5.92043445024683-8.549527869057783-15.89308450192766,28.814099767780135-71.651798275437613,26.414631640405787-74.903351856515656-57.408118923984148-17.477768625325552-114.786868661854896-56.42613890609573-146.839728908589677-107.670895394778199-7.824593215616005-12.509628497136873-25.446064749632569-48.961879656944802-25.129816492697501-62.84407128634848.360967414593688-15.845206136236811,29.678407108409374-27.349857298038842,37.170605140343469-41.792775019592227,8.474373177285088-16.336283960928995,15.265165818467722-70.115742097013026,22.535574658915721-93.464425341086098,6.511856762508614-20.912617737903929,15.138351891535422-40.951871431911968,23.984228670886296-60.887145454771598-19.824330470444693-59.711737481875389-41.652603160819126-223.646570009292191,14.770142848072283-265.358487595965926,20.256720264016622-14.975284012156408,47.775170525896101-7.365935666703081,69.06847552396539.463031993132972Z" style="fill:#fff; stroke:#fff; stroke-miterlimit:10; stroke-width:20px;"/><path d="M545.086128809318325,634.17733115926967c-1.916234222389903,10.904836663947208-13.200399231543997,19.9684525112134-19.228282972704619,28.847156488129258,5.148791585794243,17.341746996582515,23.452368225240207,32.469633774020622,41.871979658106284,22.26056323146986,10.202299363747443-5.654624924110976,12.662982846424711-28.410817227209918,30.078664459266292-18.574565360700944,20.602107429051102,11.635922277288046-7.358068459798233,41.919145696851047-20.200684688385081,47.419288613134995-23.696936206240935,10.148752675660944-46.276104717257112,3.030349546785146-64.480665282484551-13.513776751857222-21.321019450957465,23.116062275192235-60.147648692427538,24.442186393316661-81.149785941786831.926714959659876-8.969842666640034-10.043267334527627-18.325237177219606-34.472907527691859,2.112583172742234-36.925499609176768,17.574467702313996-2.108982248839311,14.797219533840689,21.302154613087623,33.128148837891786,23.676346088424907,16.399544220099415,2.124041691557068,28.00543225403635-10.281630019166187,32.106139795443596-25.025038966690772-22.95576279571651-24.310471610628156-34.918523154492505-51.334497120726155,11.7133443219318-51.750237510968873,16.653786794240659-.148474684709072,37.914519533047496.658777872817154,34.048558639979092,22.659048818575684Z" style="fill:#fff; stroke:#fff; stroke-miterlimit:10; stroke-width:10px;"/><path d="M315.866976766015796,481.139883111820382c20.485742674109133,10.789119726547142,80.131664390559308,46.608826334584592,95.525112649496805,60.987811227729253,17.98876154039317,16.803261107233993-.345926886724556,25.562874892904802-13.119284443499055,34.665678236633539-28.573003790368602,20.362260532307118-60.354196129082993,36.431436132465024-88.470130112538754,57.520196108667733-16.306179532411988,6.379390980862809-33.201692402883054-13.888223414567619-18.903113892652982-27.828467692914273l78.579531725010384-50.962558760766115-81.860004187286904-55.622158302496246c-7.063510983884044-12.80283598857568,4.561262581522897-27.318440752127572,18.120717673085892-25.11331077545583,5.961843761308046.969555214833235,7.0955237559956,4.756148262535135,10.127170588384615,6.352809958601938Z" style="fill:#fff; stroke:#fff; stroke-miterlimit:10; stroke-width:10px;"/><path d="M736.09667807250662,497.155012658753549c-24.525671712894109,22.724368830173262-55.780230015836423,37.668256224358629-82.590476433877484,57.882239539532748l79.573986434923427,52.406405296707817c11.478881856117368,18.423886711167142-3.867828137928882,33.872071072004474-23.896319302351912,24.892264346959564-13.102575910452288-5.874561309199635-85.550509354172391-53.693832296037726-96.456391123203503-63.543614876813081-12.182349157068529-11.002639957183419-9.68882424678668-18.669276109332714,1.816857082965726-28.692648737247509,7.299138186721393-6.358770055536297,94.442081041303027-63.207347761752317,100.172046897456312-64.873152220621705,13.926733162217715-4.04875260717381,26.096686733708339,8.515766685801282,21.380296444087435,21.928506651482166Z" style="fill:#fff; stroke:#fff; stroke-miterlimit:10; stroke-width:10px;"/></svg>